<svg id="Twitter_ON" data-name="Twitter ON" xmlns="http://www.w3.org/2000/svg" viewBox="0 0 17.36 14.09"><title>icon-twitter</title><g id="Ellipse_255" data-name="Ellipse 255"><path d="M17.36,1.64a8.17,8.17,0,0,1-1.73,1.84v.74A10,10,0,0,1,5.5,14.09H5.32A9.07,9.07,0,0,1,0,12.36a2.78,2.78,0,0,0,.86.1A7.26,7.26,0,0,0,5.3,11,3.64,3.64,0,0,1,1.9,8.43a1.68,1.68,0,0,0,.67.1,3.74,3.74,0,0,0,1-.1A3.54,3.54,0,0,1,.67,5a3.23,3.23,0,0,0,1.68.47A3.72,3.72,0,0,1,1.29.58,10,10,0,0,0,8.63,4.34a1.84,1.84,0,0,1-.1-.77A3.62,3.62,0,0,1,12.1,0a3.43,3.43,0,0,1,2.58,1.16A8.84,8.84,0,0,0,16.9.29a3.72,3.72,0,0,1-1.54,1.93A7.77,7.77,0,0,0,17.36,1.64Z" fill="#fff"/></g></svg>