<svg id="Layer_1" data-name="Layer 1" xmlns="http://www.w3.org/2000/svg" viewBox="0 0 50 50"><title>icon-wp-2</title><path d="M40.81,0,30.7,10a21.62,21.62,0,0,0-11.4,0L9.18,0Z" fill="#fff"/><polygon points="9.18 0 0 31.31 0 0 9.18 0" fill="#fff"/><path d="M50,31.31V50H0V31.31l3.54,1.13L2.9,36.1a44.68,44.68,0,0,0,12.64,4.7c.75,2.85,2,6.72,3.34,7.81,1.1.86,3.62,1.31,6,1.38h.29c2.35-.07,4.87-.52,6-1.38,1.38-1.1,2.62-5,3.36-7.91a52.55,52.55,0,0,0,12.62-4.6l-.64-3.65Z" fill="#fff"/><polygon points="50 0 50 31.31 40.81 0 50 0" fill="#fff"/><path d="M32.67,31l-.1.06a4.12,4.12,0,0,1-1.72.7c-3.57.24-4.57-1.21-4.86-1.92a9.41,9.41,0,0,0,3,5.66H20.63A10.71,10.71,0,0,0,24,29.94c-.29.68-1.21,1.9-4,1.9h-.78A4.09,4.09,0,0,1,15.86,27a4.2,4.2,0,0,1,.74-1.64c1.39-2.2,8.23-8.95,8.42-9,.23.1,7,6.85,8.42,9A4,4,0,0,1,32.67,31Z" fill="#fff"/></svg>