<svg id="Layer_1" data-name="Layer 1" xmlns="http://www.w3.org/2000/svg" viewBox="0 0 29.7 29.7"><title>icon-quote</title><g id="Quote_mark_and_circle" data-name="Quote mark and circle"><g id="Ellipse_256" data-name="Ellipse 256"><path d="M1.16,9.06a14.86,14.86,0,0,0,0,11.56,15,15,0,0,1,0-11.56Zm0,11.56a14,14,0,0,0,1.37,2.52A15.31,15.31,0,0,1,1.16,20.62Zm0-11.56A15.31,15.31,0,0,1,2.53,6.54,14,14,0,0,0,1.16,9.06ZM6.54,27.15a14,14,0,0,0,2.52,1.37A15.31,15.31,0,0,1,6.54,27.15Zm0-24.62A15.31,15.31,0,0,1,9.06,1.16,14,14,0,0,0,6.54,2.53Zm8.3,27.15a15,15,0,0,1-5.78-1.16,14.67,14.67,0,0,0,5.78,1.17A10.87,10.87,0,0,0,16,29.64C15.6,29.66,15.22,29.68,14.84,29.68ZM14.84,0A14.67,14.67,0,0,0,9.06,1.16a15,15,0,0,1,11.56,0A14.67,14.67,0,0,0,14.84,0Zm5.78,1.17a15.31,15.31,0,0,1,2.52,1.37A14,14,0,0,0,20.62,1.16Zm6.53,5.38a15.31,15.31,0,0,1,1.37,2.52A14,14,0,0,0,27.15,6.54Zm2.54,8.3a14.67,14.67,0,0,0-1.17-5.78,15,15,0,0,1,1.16,5.78c0,.38,0,.76,0,1.14A10.87,10.87,0,0,0,29.69,14.84Z" transform="translate(0.01 0.01)" fill="#f0b225"/><path d="M28.52,9.06a15.31,15.31,0,0,0-1.37-2.52,14.72,14.72,0,0,0-4-4,15.31,15.31,0,0,0-2.52-1.37,15,15,0,0,0-11.56,0A15.31,15.31,0,0,0,6.54,2.53a14.72,14.72,0,0,0-4,4A15.31,15.31,0,0,0,1.16,9.06a15,15,0,0,0,0,11.56,15.31,15.31,0,0,0,1.37,2.52,14.72,14.72,0,0,0,4,4,15.31,15.31,0,0,0,2.52,1.37,15,15,0,0,0,5.78,1.16c.38,0,.76,0,1.14,0s.75-.08,1.12-.13.49-.08.73-.13a14.62,14.62,0,0,0,2.11-.6,14.86,14.86,0,0,0,8.84-8.84,14.62,14.62,0,0,0,.6-2.11c.05-.24.1-.48.13-.73s.1-.74.13-1.12,0-.76,0-1.14A15,15,0,0,0,28.52,9.06Zm-.83,5.79A12.85,12.85,0,1,1,14.84,2,12.85,12.85,0,0,1,27.69,14.85Z" transform="translate(0.01 0.01)" fill="#fff"/><path d="M20.56,15.12v3.71a.62.62,0,0,1-.61.62H16.23a.63.63,0,0,1-.6-.62V15.92A12.12,12.12,0,0,1,16,12.53a5.15,5.15,0,0,1,1.41-2.2,6.85,6.85,0,0,1,2-1.33V9a.62.62,0,0,1,.8.3l.44.93a.62.62,0,0,1-.3.81,3.54,3.54,0,0,0-1.53,1.17,4.05,4.05,0,0,0-.68,2.34H20A.61.61,0,0,1,20.56,15.12Z" transform="translate(0.01 0.01)" fill="#fff"/><path d="M12,12.17a4.11,4.11,0,0,0-.66,2.34h1.78a.61.61,0,0,1,.61.61v3.72a.61.61,0,0,1-.61.61H9.41a.61.61,0,0,1-.56-.64V15.9a12.12,12.12,0,0,1,.37-3.39,5.19,5.19,0,0,1,1.4-2.22,6.85,6.85,0,0,1,2-1.33.62.62,0,0,1,.8.3l.44.93h0a.6.6,0,0,1-.31.8A3.66,3.66,0,0,0,12,12.17Z" transform="translate(0.01 0.01)" fill="#fff"/></g></g></svg>