<svg id="Layer_1" data-name="Layer 1" xmlns="http://www.w3.org/2000/svg" viewBox="0 0 15.56 14"><title>icon-camera</title><g id="Camera"><path id="path" d="M5.44,0h4.67l1.4,1.56H14a1.59,1.59,0,0,1,1.56,1.55v9.34A1.6,1.6,0,0,1,14,14H1.56A1.6,1.6,0,0,1,0,12.44V3.11A1.61,1.61,0,0,1,1.56,1.55H4ZM5.06,10.58a3.77,3.77,0,0,0,2.72,1.16,3.52,3.52,0,0,0,2.72-1.16,4.14,4.14,0,0,0,1.17-2.72A3.67,3.67,0,0,0,10.5,5.13,4.08,4.08,0,0,0,7.78,4,3.5,3.5,0,0,0,5.06,5.13,4.12,4.12,0,0,0,3.89,7.86a3.75,3.75,0,0,0,1.17,2.72Zm1-1A2.41,2.41,0,0,1,7.78,5.45a2.26,2.26,0,0,1,1.71.7,2.4,2.4,0,0,1,0,3.4,2.44,2.44,0,0,1-1.72.72,2.31,2.31,0,0,1-1.71-.7Z" fill="#333"/></g></svg>