<svg id="Layer_1" data-name="Layer 1" xmlns="http://www.w3.org/2000/svg" viewBox="0 0 90.53 92"><title>icon-sa</title><g id="SA_Icon" data-name="SA Icon" opacity="0.2"><path id="Path_5" data-name="Path 5" d="M41.8,24.12a4,4,0,0,0,0-4.08l-12-18A5,5,0,0,0,26,0H1.44C.08,0-.4.9.36,2.05l12,18a4,4,0,0,1,0,4.08l-12,18c-.76,1.12-.28,2.06,1.08,2.06H26a5.11,5.11,0,0,0,3.8-2Z" transform="translate(0)" fill="#f5f5f1"/><path id="Path_6" data-name="Path 6" d="M41.8,72a4,4,0,0,0,0-4.08l-12-18a5.21,5.21,0,0,0-3.8-2H1.44c-1.35,0-1.84.91-1.08,2.06l12,18a4,4,0,0,1,0,4.08L.36,90c-.76,1.12-.28,2,1.08,2H26a5,5,0,0,0,3.8-2Z" transform="translate(0)" fill="#f5f5f1"/><path id="Path_7" data-name="Path 7" d="M90,48.05A4,4,0,0,0,90,44L78,26a5.19,5.19,0,0,0-3.8-2H49.61c-1.35,0-1.84.93-1.08,2l12,18a4,4,0,0,1,0,4.07l-12,18c-.76,1.11-.28,2,1.08,2H74.15A5,5,0,0,0,78,66Z" transform="translate(0)" fill="#f5f5f1"/></g></svg>