<svg id="Layer_1" data-name="Layer 1" xmlns="http://www.w3.org/2000/svg" viewBox="0 0 48.63 49.7"><title>icon-wp</title><path id="W_P_ON" data-name="W P ON" d="M48.63,31.12,39.69,0,29.86,9.93a20.77,20.77,0,0,0-11.09,0L8.93,0,0,31.12l3.44,1.13-.62,3.63a43.12,43.12,0,0,0,12.29,4.68c.73,2.83,1.92,6.67,3.25,7.76,1.07.85,3.52,1.3,5.81,1.37h.28c2.29-.07,4.74-.52,5.8-1.37,1.34-1.1,2.55-5,3.27-7.86a50.68,50.68,0,0,0,12.27-4.58l-.62-3.62ZM30,31.59c-3.47.24-4.44-1.2-4.72-1.91a9.44,9.44,0,0,0,2.9,5.63H20.06s2.29-1.7,3.38-6h0s-.24,2.63-4.82,2.31a4.06,4.06,0,0,1-2.47-6.4c1.35-2.19,8-8.9,8.18-9,.23.1,6.85,6.81,8.19,9a4,4,0,0,1-.84,5.67A4,4,0,0,1,30,31.59Z" fill="#fff"/></svg>