<?xml version="1.0" encoding="utf-8"?>
<!-- Generator: Adobe Illustrator 23.0.0, SVG Export Plug-In . SVG Version: 6.00 Build 0)  -->
<svg version="1.1" id="Layer_1" xmlns="http://www.w3.org/2000/svg" xmlns:xlink="http://www.w3.org/1999/xlink" x="0px" y="0px"
	 viewBox="0 0 598.18 59.54" style="enable-background:new 0 0 598.18 59.54;" xml:space="preserve">
<style type="text/css">
	.st0{fill:#57C7DE;}
	.st1{fill:#75C78F;}
	.st2{fill:#004054;}
</style>
<g>
	<g>
		<path d="M71.6,49.89c-4,0.02-7.96-0.85-11.59-2.56l1.09-6.46c3.21,1.96,6.86,3.08,10.62,3.26c3.26,0,5.5-1.53,5.5-4.48
			c0-2.75-1.28-3.84-6.65-6.14c-7.16-2.94-10.04-5.31-10.04-11c0-6.53,5.05-10.3,11.9-10.3c3.38-0.1,6.73,0.67,9.72,2.24l-1.09,6.4
			c-2.56-1.78-5.58-2.78-8.7-2.88c-3.52,0-5.05,1.73-5.05,3.97c0,2.37,1.15,3.45,6.34,5.63C81.25,30.62,84,33.25,84,39.01
			C84,46.11,78.76,49.88,71.6,49.89"/>
		<path d="M102.94,49.44l-0.58-3.65c-2.22,2.46-5.32,3.96-8.63,4.15c-4.86,0-7.36-2.94-7.36-7.8V23.6h6.4v16.95
			c0,2.24,0.96,3.77,3.26,3.77c2.33-0.24,4.47-1.39,5.95-3.2V23.66h6.4V49.5h-5.44V49.44z"/>
		<path d="M120.72,49.95c-3.5-0.03-6.94-0.89-10.04-2.49l0.83-5.37c2.79,1.88,6.04,2.94,9.4,3.06c2.75,0,4.28-1.02,4.28-2.69
			c0-1.79-1.15-2.56-5.25-3.58c-6.27-1.6-8.89-3.45-8.89-8.12c0-4.41,3.52-7.61,9.53-7.61c3.1-0.04,6.17,0.57,9.02,1.79l-0.83,5.37
			c-2.49-1.46-5.3-2.27-8.19-2.37c-2.43,0-3.58,0.9-3.58,2.37c0,1.41,0.96,2.11,4.8,3.14c6.71,1.73,9.27,3.52,9.27,8.38
			c0.06,5.12-3.58,8.12-10.36,8.12"/>
		<path d="M144.19,49.89c-5.05,0-8.51-1.86-8.51-7.74v-13.3h-3.65V23.6h3.65v-8.12l6.32-0.96v9.15h5.31l0.83,5.25h-6.08v12.22
			c0,2.11,0.96,3.2,3.39,3.2c0.69,0.01,1.37-0.06,2.05-0.19l0.83,5.37C146.96,49.76,145.57,49.89,144.19,49.89"/>
		<path d="M166.19,49.44l-0.51-3.39c-2.18,2.48-5.33,3.91-8.63,3.9c-3.73,0.33-7.01-2.43-7.34-6.16c-0.03-0.33-0.03-0.67-0.01-1.01
			c0-6.27,5.12-8.96,15.54-9.98v-0.76c0-2.75-1.6-3.84-4.41-3.84c-3,0.07-5.94,0.79-8.63,2.11l-0.83-5.12
			c3.26-1.37,6.76-2.08,10.3-2.11c6.72,0,9.98,2.43,9.98,8.63v17.72L166.19,49.44z M165.3,36.58c-7.42,0.9-9.21,3.06-9.21,5.56
			c-0.11,1.56,1.05,2.91,2.61,3.03c0.17,0.01,0.35,0.01,0.52-0.01c2.29-0.08,4.45-1.07,6.01-2.75l0.06-5.82V36.58z"/>
	</g>
	<rect x="175.4" y="23.67" width="6.4" height="25.84"/>
	<g>
		<path d="M200.92,49.44V32.55c0-2.24-0.96-3.77-3.33-3.77c-2.32,0.24-4.45,1.41-5.88,3.26V49.5h-6.4V23.67h5.44l0.57,3.65
			c2.21-2.48,5.32-3.97,8.63-4.15c4.8,0,7.35,2.94,7.35,7.74v18.61h-6.39V49.44L200.92,49.44z"/>
	</g>
	<path d="M222.35,12.41h7.55l14.13,37.03h-7.67l-3.52-9.34h-14.01l-3.33,9.34h-7.03L222.35,12.41z M220.75,34.35h10.1l-5.05-14.26
		L220.75,34.35z"/>
	<g>
		<path d="M255.61,49.78c-3.62,0.01-7.21-0.57-10.63-1.74V11.9l6.4-1.02v15.67c1.88-2.1,4.54-3.33,7.36-3.39
			c5.44,0,9.72,4.09,9.72,12.73c0,9.47-5.18,13.88-12.86,13.88 M257.07,28.78c-2.29,0.27-4.36,1.5-5.68,3.39v11.71
			c1.3,0.52,2.7,0.76,4.09,0.7c4.09,0,6.52-2.43,6.52-8.31c0-5.05-2.05-7.48-4.92-7.48"/>
	</g>
	<rect x="271.4" y="23.67" width="6.4" height="25.84"/>
	<polygon points="281.38,49.44 281.38,11.9 287.85,10.87 287.85,49.44 	"/>
	<rect x="291.42" y="23.67" width="6.4" height="25.84"/>
	<g>
		<path d="M312.08,49.89c-5.05,0-8.51-1.86-8.51-7.74v-13.3h-3.65V23.6h3.65v-8.12l6.34-0.96v9.15h5.57l1.98,5.25h-7.48v12.22
			c0,2.11,0.96,3.2,3.45,3.2c0.69,0.01,1.37-0.06,2.05-0.19l0.83,5.37C314.91,49.76,313.5,49.89,312.08,49.89"/>
		<path d="M332.55,51.23c-2.3,6.34-5.25,8.31-10.23,8.31c-0.8,0.01-1.59-0.07-2.37-0.26l-0.83-5.31c0.98,0.25,1.99,0.38,3.01,0.39
			c1.84,0.1,3.53-1.02,4.15-2.75l0.57-1.73l-9.33-26.28h6.65l6.01,18.42l5.76-18.04h6.34L332.55,51.23z"/>
		<path d="M277.73,16.5c0,1.87-1.52,3.39-3.39,3.39s-3.39-1.52-3.39-3.39c0-1.87,1.52-3.39,3.39-3.39
			C276.21,13.13,277.72,14.64,277.73,16.5"/>
		<path d="M298.07,16.5c0,1.87-1.52,3.39-3.39,3.39s-3.39-1.52-3.39-3.39c0-1.87,1.52-3.39,3.39-3.39c1.86-0.01,3.38,1.49,3.39,3.35
			V16.5"/>
		<path d="M182.05,16.63c0,1.87-1.52,3.39-3.39,3.39c-1.87,0-3.39-1.52-3.39-3.39c0-1.87,1.52-3.39,3.39-3.39
			C180.53,13.25,182.04,14.76,182.05,16.63"/>
		<path class="st0" d="M47.48,25.52c0.32-0.53,0.32-1.2,0-1.73l-6.78-10.23c-0.39-0.53-1-0.87-1.66-0.9H25.23
			c-0.57,0-0.77,0.38-0.44,0.9l6.78,10.17c0.32,0.53,0.32,1.19,0,1.73l-6.78,10.23c-0.32,0.51-0.13,0.9,0.44,0.9h13.81
			c0.66-0.03,1.27-0.36,1.66-0.9L47.48,25.52z"/>
		<path class="st1" d="M22.86,12.85c0.32-0.53,0.32-1.2,0-1.73L16.08,0.9c-0.39-0.54-1-0.86-1.66-0.9H0.6C0.03,0-0.17,0.39,0.15,0.9
			l6.78,10.23c0.32,0.53,0.32,1.2,0,1.73L0.15,23.09c-0.32,0.51-0.13,0.9,0.44,0.9h13.82c0.66-0.03,1.27-0.36,1.66-0.9L22.86,12.85z
			"/>
		<path class="st2" d="M22.86,38.18c0.32-0.53,0.32-1.2,0-1.73l-6.78-10.23c-0.39-0.53-1-0.86-1.66-0.9H0.6
			c-0.58,0-0.77,0.39-0.44,0.9l6.78,10.17c0.32,0.53,0.32,1.19,0,1.73L0.15,48.35c-0.32,0.51-0.13,0.9,0.44,0.9h13.82
			c0.66-0.03,1.27-0.36,1.66-0.9L22.86,38.18z"/>
		<path d="M586.6,33.81c-4.76,0-7.21-2.93-7.21-7.31c0-4.62,2.84-7.69,7.36-7.69c4.91,0,8.32,4.42,8.32,11.16v0.67
			C592.56,32.66,589.58,33.81,586.6,33.81 M580.34,46.89l0.48,2.93c10.43-2.55,17.36-9.04,17.36-20c0-8.61-4.66-13.8-11.4-13.8
			c-6.35,0-10.63,4.57-10.63,10.63c0,6.16,3.89,10,9.91,10c3.17,0,6.06-1.06,8.65-2.84C593.42,40.97,588.09,45.16,580.34,46.89
			 M568.71,49.15V16.5h-2.6l-7.98,3.65l0.43,2.6l6.97-2.79v29.19H568.71z M550.77,32.9c0,8.51-3.08,14.04-8.66,14.04
			s-8.66-5.53-8.66-14.04c0-8.51,3.08-14.04,8.66-14.04S550.77,24.38,550.77,32.9 M554.04,32.85c0-10.29-4.57-16.83-11.93-16.83
			c-7.31,0-11.93,6.59-11.93,16.93c0,10.29,4.57,16.83,11.93,16.83C549.42,49.77,554.04,43.19,554.04,32.85 M524.47,49.15
			l-0.43-2.84h-15.82l10.05-10.48c3.99-4.18,5.67-6.97,5.67-10.96c0-5.34-3.56-8.85-9.57-8.85c-3.99,0-7.12,1.59-9.52,3.61
			l0.48,3.17c2.55-2.21,5.48-3.89,8.85-3.89c4.04,0,6.44,2.26,6.44,6.15c0,3.03-1.2,5.29-4.66,8.99l-11.97,12.74v2.36H524.47z
			 M488.45,42.99c0-4.04-2.6-5.77-7.98-7.21c-3.85-1.01-5.1-1.97-5.1-3.85c0-1.88,1.49-3.22,4.62-3.22c2.26,0,4.57,0.67,6.64,1.78
			l0.53-3.03c-2.02-0.91-4.38-1.54-7.07-1.54c-4.71,0-7.74,2.6-7.74,6.15c0,3.75,2.16,5.39,7.21,6.68c4.52,1.2,5.87,2.21,5.87,4.47
			c0,2.31-1.97,3.65-5.14,3.65c-3.03,0-5.82-1.11-7.93-2.45l-0.53,3.08c1.97,1.11,5.15,2.07,8.18,2.07
			C485.23,49.58,488.45,47.13,488.45,42.99 M462.77,42.71c-2.02,2.45-4.14,4.09-6.83,4.09c-3.61,0-6.25-2.98-6.25-8.51
			c0-6.39,3.17-9.47,7.26-9.47c2.36,0,4.04,0.43,5.82,1.35V42.71z M465.95,49.15V14.62l-3.17,0.58v12.02
			c-1.59-0.72-3.61-1.15-5.92-1.15c-5.53,0-10.39,4.04-10.39,12.36c0,7.65,4.18,11.2,9.18,11.2c3.32,0,5.58-1.73,7.31-3.8l0.58,3.32
			H465.95z M440.6,49.15V32.9c0-4.38-2.26-6.97-6.78-6.97c-3.08,0-5.67,1.63-8.17,3.85l-0.53-3.37h-2.45v22.74h3.17V32.7
			c2.5-2.45,4.95-3.94,7.36-3.94c2.88,0,4.23,1.78,4.23,4.71v15.68H440.6z M407.47,28.47c3.65,0,5.63,2.93,5.91,7.02h-12.41
			C401.56,31.12,403.91,28.47,407.47,28.47 M416.61,46.41l-0.48-2.88c-2.36,2.02-5,3.37-8.03,3.37c-4.57,0-7.17-3.27-7.26-8.9h15.82
			v-0.67c0-6.3-2.98-11.4-9.18-11.4c-5.58,0-9.81,4.52-9.81,11.83c0,7.84,4.28,11.88,10.24,11.88
			C411.42,49.63,414.35,48.33,416.61,46.41 M395.07,28.9l-0.53-2.98c-3.75,0.1-6.4,2.6-8.08,5.14l-0.72-4.66h-2.36v22.74h3.17V34.87
			C388.09,31.84,391.31,29.15,395.07,28.9 M384.01,18.95l-0.48-2.98H359.1v2.98h10.68v30.2h3.32v-30.2H384.01z"/>
	</g>
</g>
</svg>
