<svg id="Layer_1" data-name="Layer 1" xmlns="http://www.w3.org/2000/svg" viewBox="0 0 156.59 27.24"><title>sa-logo</title><g id="SA_Logo" data-name="SA Logo"><path id="Path_207" data-name="Path 207" d="M32.75,22.82a12.3,12.3,0,0,1-5.3-1.17L28,18.7a10.24,10.24,0,0,0,4.86,1.49c1.5,0,2.52-.7,2.52-2.05s-.59-1.75-3-2.81c-3.28-1.34-4.6-2.43-4.6-5,0-3,2.31-4.71,5.45-4.71a8.92,8.92,0,0,1,4.44,1l-.5,2.93a7.45,7.45,0,0,0-4-1.32c-1.61,0-2.31.79-2.31,1.82s.53,1.58,2.9,2.57c3.48,1.4,4.74,2.6,4.74,5.24,0,3.25-2.4,5-5.68,5" transform="translate(0)"/><path id="Path_208" data-name="Path 208" d="M47.09,22.62,46.83,21a5.75,5.75,0,0,1-3.95,1.9c-2.22,0-3.36-1.34-3.36-3.57V10.8h2.92v7.75c0,1,.44,1.73,1.49,1.73a4,4,0,0,0,2.72-1.47v-8h2.93V22.65H47.09v0Z" transform="translate(0)"/><path id="Path_209" data-name="Path 209" d="M55.23,22.85a10.1,10.1,0,0,1-4.6-1.14L51,19.25a8.2,8.2,0,0,0,4.3,1.4c1.26,0,2-.46,2-1.22s-.52-1.17-2.4-1.64c-2.86-.74-4.06-1.58-4.06-3.72s1.61-3.48,4.36-3.48a10.08,10.08,0,0,1,4.12.82l-.38,2.46a8,8,0,0,0-3.74-1.09c-1.11,0-1.64.41-1.64,1.09s.44,1,2.19,1.43c3.08.79,4.25,1.61,4.25,3.83s-1.64,3.72-4.74,3.72" transform="translate(0)"/><path id="Path_210" data-name="Path 210" d="M66,22.82c-2.31,0-3.89-.85-3.89-3.54V13.2H60.41V10.8h1.67V7.08L65,6.64v4.19H67.4l.38,2.4H65v5.59c0,1,.44,1.46,1.55,1.46a4.81,4.81,0,0,0,.93-.09l.38,2.46a10,10,0,0,1-1.9.17" transform="translate(0)"/><path id="Path_211" data-name="Path 211" d="M75.62,16.74c-3.39.41-4.21,1.4-4.21,2.54a1.29,1.29,0,0,0,1.19,1.39h.24a3.93,3.93,0,0,0,2.75-1.25l0-2.67ZM76,22.62l-.23-1.55a5.28,5.28,0,0,1-4,1.78A3.1,3.1,0,0,1,68.49,20a3.49,3.49,0,0,1,0-.46c0-2.86,2.35-4.09,7.11-4.56v-.35c0-1.25-.73-1.75-2-1.75a9.46,9.46,0,0,0-4,1l-.38-2.34a12.47,12.47,0,0,1,4.71-1c3.07,0,4.56,1.11,4.56,3.95v8.1Z" transform="translate(0)"/><rect id="Rectangle_1078" data-name="Rectangle 1078" x="80.25" y="10.83" width="2.93" height="11.82"/><g id="Group_386" data-name="Group 386"><path id="Path_212" data-name="Path 212" d="M91.92,22.62V14.89c0-1-.44-1.72-1.52-1.72a3.88,3.88,0,0,0-2.69,1.49v8H84.78V10.83h2.49l.26,1.66a5.77,5.77,0,0,1,4-1.9c2.2,0,3.37,1.35,3.37,3.55v8.51H91.92v0Z" transform="translate(0)"/></g><path id="Path_213" data-name="Path 213" d="M101,15.71h4.62L103.3,9.19Zm.73-10h3.46l6.46,16.94h-3.51l-1.6-4.27h-6.42l-1.52,4.27H95.37Z" transform="translate(0)"/><g id="Group_387" data-name="Group 387"><path id="Path_214" data-name="Path 214" d="M117.61,13.17a3.68,3.68,0,0,0-2.6,1.55v5.35a4.62,4.62,0,0,0,1.87.33c1.88,0,3-1.12,3-3.8,0-2.32-.94-3.43-2.25-3.43m-.68,9.6a14.66,14.66,0,0,1-4.86-.8V5.44L115,5v7.17a4.65,4.65,0,0,1,3.36-1.55c2.49,0,4.45,1.87,4.45,5.82,0,4.34-2.37,6.36-5.88,6.36" transform="translate(0)"/></g><rect id="Rectangle_1079" data-name="Rectangle 1079" x="124.17" y="10.83" width="2.93" height="11.82"/><path id="Path_215" data-name="Path 215" d="M128.73,22.62V5.44l3-.47V22.62Z" transform="translate(0)"/><rect id="Rectangle_1080" data-name="Rectangle 1080" x="133.33" y="10.83" width="2.93" height="11.82"/><path id="Path_216" data-name="Path 216" d="M142.78,22.82c-2.31,0-3.89-.85-3.89-3.54V13.2h-1.67V10.8h1.67V7.08l2.9-.44v4.19h2.54l.91,2.4h-3.43v5.59c0,1,.44,1.46,1.58,1.46a4.91,4.91,0,0,0,.94-.09l.38,2.46a11.35,11.35,0,0,1-1.93.17" transform="translate(0)"/><path id="Path_217" data-name="Path 217" d="M152.14,23.44c-1,2.9-2.4,3.8-4.68,3.8a5,5,0,0,1-1.09-.12L146,24.69a5.87,5.87,0,0,0,1.38.18,1.93,1.93,0,0,0,1.9-1.26l.26-.79-4.27-12h3.05l2.75,8.42L153.69,11h2.9Z" transform="translate(0)"/><path id="Path_218" data-name="Path 218" d="M127.06,7.55A1.55,1.55,0,1,1,125.51,6h0a1.55,1.55,0,0,1,1.55,1.55" transform="translate(0)"/><path id="Path_219" data-name="Path 219" d="M136.37,7.55A1.55,1.55,0,1,1,134.82,6h0a1.54,1.54,0,0,1,1.55,1.53v0" transform="translate(0)"/><path id="Path_220" data-name="Path 220" d="M83.29,7.61a1.55,1.55,0,1,1-1.55-1.55h0a1.56,1.56,0,0,1,1.55,1.55" transform="translate(0)"/><path id="Path_221" data-name="Path 221" d="M21.72,11.68a.77.77,0,0,0,0-.8L18.62,6.2a1,1,0,0,0-.76-.41H11.54c-.26,0-.35.18-.2.41l3.1,4.66a.75.75,0,0,1,0,.79l-3.1,4.68c-.14.23-.06.41.2.41h6.32a1,1,0,0,0,.76-.41Z" transform="translate(0)" fill="#57c7de"/><path id="Path_222" data-name="Path 222" d="M10.46,5.88a.8.8,0,0,0,0-.79L7.36.41A1,1,0,0,0,6.6,0H.27C0,0-.08.18.07.41l3.1,4.68a.75.75,0,0,1,0,.79L.07,10.56c-.14.24-.06.41.2.41H6.59a1,1,0,0,0,.76-.41Z" transform="translate(0)" fill="#75c78f"/><path id="Path_223" data-name="Path 223" d="M10.46,17.47a.8.8,0,0,0,0-.79L7.36,12a1,1,0,0,0-.76-.41H.27c-.26,0-.35.17-.2.41l3.1,4.65a.75.75,0,0,1,0,.79L.07,22.12c-.14.23-.06.41.2.41H6.59a1,1,0,0,0,.76-.41Z" transform="translate(0)" fill="#004054"/></g></svg>