<svg xmlns="http://www.w3.org/2000/svg" style="display:none"><symbol id="icon-arrow-right" viewBox="0 0 16 16"><title>icon-arrow-right</title><path data-name="Path 227" d="M8 0L6.55 1.46 12.05 7H0v2h12.05l-5.5 5.51L8 16l8-8z"/></symbol><symbol id="icon-camera" viewBox="0 0 15.56 14"><title>icon-camera</title><path d="M5.44 0h4.67l1.4 1.56H14a1.59 1.59 0 0 1 1.56 1.55v9.34A1.6 1.6 0 0 1 14 14H1.56A1.6 1.6 0 0 1 0 12.44V3.11a1.61 1.61 0 0 1 1.56-1.56H4zm-.38 10.58a3.77 3.77 0 0 0 2.72 1.16 3.52 3.52 0 0 0 2.72-1.16 4.14 4.14 0 0 0 1.17-2.72 3.67 3.67 0 0 0-1.17-2.73A4.08 4.08 0 0 0 7.78 4a3.5 3.5 0 0 0-2.72 1.13 4.12 4.12 0 0 0-1.17 2.73 3.75 3.75 0 0 0 1.17 2.72zm1-1a2.41 2.41 0 0 1 1.72-4.13 2.26 2.26 0 0 1 1.71.7 2.4 2.4 0 0 1 0 3.4 2.44 2.44 0 0 1-1.72.72 2.31 2.31 0 0 1-1.71-.7z"/></symbol><symbol id="icon-download" viewBox="0 0 16.5 22.14"><title>icon-download</title><path d="M16.5 8l-8 8-8-8 1.46-1.46 5.5 5.51V0h2.08v12.05l5.51-5.51L16.5 8zM0 20.14h16v2H0z"/></symbol><symbol id="icon-linkedIn" viewBox="0 0 16.62 16.64"><title>icon-linkedIn</title><g data-name="LinkedIn ON"><g data-name="Ellipse 254"><path d="M16.62 10.54v6.08h-3.45v-5.36c0-1.29 0-2.95-1.79-2.95s-2.07 1.4-2.07 2.85v5.48H5.88V5.51h3.3V7h.05a3.59 3.59 0 0 1 3.26-1.77c3.51.03 4.13 2.33 4.13 5.31z"/><circle cx="2" cy="2" r="2"/><path d="M.27 5.51h3.44V16.6H.27z"/></g></g></symbol><symbol id="icon-quote" viewBox="0 0 29.7 29.7"><title>icon-quote</title><g data-name="Quote mark and circle"><g data-name="Ellipse 256"><path d="M1.17 9.07a14.86 14.86 0 0 0 0 11.56 15 15 0 0 1 0-11.56zm0 11.56a14 14 0 0 0 1.37 2.52 15.31 15.31 0 0 1-1.37-2.52zm0-11.56a15.31 15.31 0 0 1 1.37-2.52 14 14 0 0 0-1.37 2.52zm5.38 18.09a14 14 0 0 0 2.52 1.37 15.31 15.31 0 0 1-2.52-1.37zm0-24.62a15.31 15.31 0 0 1 2.52-1.37 14 14 0 0 0-2.52 1.37zm8.3 27.15a15 15 0 0 1-5.78-1.16 14.67 14.67 0 0 0 5.78 1.17 10.87 10.87 0 0 0 1.16-.05c-.4.02-.78.04-1.16.04zm0-29.68a14.67 14.67 0 0 0-5.78 1.16 15 15 0 0 1 11.56 0A14.67 14.67 0 0 0 14.85.01zm5.78 1.17a15.31 15.31 0 0 1 2.52 1.37 14 14 0 0 0-2.52-1.38zm6.53 5.38a15.31 15.31 0 0 1 1.37 2.52 14 14 0 0 0-1.37-2.53zm2.54 8.3a14.67 14.67 0 0 0-1.17-5.78 15 15 0 0 1 1.16 5.78V16a10.87 10.87 0 0 0 .01-1.15z"/><path d="M28.53 9.07a15.31 15.31 0 0 0-1.37-2.52 14.72 14.72 0 0 0-4-4 15.31 15.31 0 0 0-2.52-1.37 15 15 0 0 0-11.56 0 15.31 15.31 0 0 0-2.53 1.36 14.72 14.72 0 0 0-4 4 15.31 15.31 0 0 0-1.38 2.53 15 15 0 0 0 0 11.56 15.31 15.31 0 0 0 1.37 2.52 14.72 14.72 0 0 0 4 4 15.31 15.31 0 0 0 2.52 1.37 15 15 0 0 0 5.78 1.16h1.14c.38 0 .75-.08 1.12-.13s.49-.08.73-.13a14.62 14.62 0 0 0 2.11-.6 14.86 14.86 0 0 0 8.84-8.84 14.62 14.62 0 0 0 .6-2.11c.05-.24.1-.48.13-.73s.1-.74.13-1.12 0-.76 0-1.14a15 15 0 0 0-1.11-5.81zm-.83 5.79A12.85 12.85 0 1 1 14.85 2.01 12.85 12.85 0 0 1 27.7 14.86z"/><path d="M20.57 15.13v3.71a.62.62 0 0 1-.61.62h-3.72a.63.63 0 0 1-.6-.62v-2.91a12.12 12.12 0 0 1 .37-3.39 5.15 5.15 0 0 1 1.41-2.2 6.85 6.85 0 0 1 2-1.33.62.62 0 0 1 .8.3l.44.93a.62.62 0 0 1-.3.81 3.54 3.54 0 0 0-1.53 1.17 4.05 4.05 0 0 0-.68 2.34h1.86a.61.61 0 0 1 .56.57zM12.01 12.18a4.11 4.11 0 0 0-.66 2.34h1.78a.61.61 0 0 1 .61.61v3.72a.61.61 0 0 1-.61.61H9.42a.61.61 0 0 1-.56-.64v-2.91a12.12 12.12 0 0 1 .37-3.39 5.19 5.19 0 0 1 1.4-2.22 6.85 6.85 0 0 1 2-1.33.62.62 0 0 1 .8.3l.44.93a.6.6 0 0 1-.31.8 3.66 3.66 0 0 0-1.55 1.18z"/></g></g></symbol><symbol id="icon-sa" viewBox="0 0 90.53 92"><title>icon-sa</title><g data-name="SA Icon" opacity=".2"><path data-name="Path 5" d="M41.8 24.12a4 4 0 0 0 0-4.08l-12-18A5 5 0 0 0 26 0H1.44C.08 0-.4.9.36 2.05l12 18a4 4 0 0 1 0 4.08l-12 18c-.76 1.12-.28 2.06 1.08 2.06H26a5.11 5.11 0 0 0 3.8-2z"/><path data-name="Path 6" d="M41.8 72a4 4 0 0 0 0-4.08l-12-18a5.21 5.21 0 0 0-3.8-2H1.44c-1.35 0-1.84.91-1.08 2.06l12 18a4 4 0 0 1 0 4.08L.36 90c-.76 1.12-.28 2 1.08 2H26a5 5 0 0 0 3.8-2z"/><path data-name="Path 7" d="M90 48.05A4 4 0 0 0 90 44L78 26a5.19 5.19 0 0 0-3.8-2H49.61c-1.35 0-1.84.93-1.08 2l12 18a4 4 0 0 1 0 4.07l-12 18c-.76 1.11-.28 2 1.08 2h24.54A5 5 0 0 0 78 66z"/></g></symbol><symbol id="icon-twitter" viewBox="0 0 17.36 14.09"><title>icon-twitter</title><path d="M17.36 1.64a8.17 8.17 0 0 1-1.73 1.84v.74A10 10 0 0 1 5.5 14.09h-.18A9.07 9.07 0 0 1 0 12.36a2.78 2.78 0 0 0 .86.1A7.26 7.26 0 0 0 5.3 11a3.64 3.64 0 0 1-3.4-2.57 1.68 1.68 0 0 0 .67.1 3.74 3.74 0 0 0 1-.1A3.54 3.54 0 0 1 .67 5a3.23 3.23 0 0 0 1.68.47A3.72 3.72 0 0 1 1.29.58a10 10 0 0 0 7.34 3.76 1.84 1.84 0 0 1-.1-.77A3.62 3.62 0 0 1 12.1 0a3.43 3.43 0 0 1 2.58 1.16A8.84 8.84 0 0 0 16.9.29a3.72 3.72 0 0 1-1.54 1.93 7.77 7.77 0 0 0 2-.58z" data-name="Ellipse 255"/></symbol><symbol id="icon-wp-2" viewBox="0 0 50 50"><title>icon-wp-2</title><path d="M40.81 0L30.7 10a21.62 21.62 0 0 0-11.4 0L9.18 0zM9.18 0L0 31.31V0h9.18zM50 31.31V50H0V31.31l3.54 1.13-.64 3.66a44.68 44.68 0 0 0 12.64 4.7c.75 2.85 2 6.72 3.34 7.81 1.1.86 3.62 1.31 6 1.38h.29c2.35-.07 4.87-.52 6-1.38 1.38-1.1 2.62-5 3.36-7.91a52.55 52.55 0 0 0 12.62-4.6l-.64-3.65zM50 0v31.31L40.81 0H50z"/><path d="M32.67 31l-.1.06a4.12 4.12 0 0 1-1.72.7c-3.57.24-4.57-1.21-4.86-1.92a9.41 9.41 0 0 0 3 5.66h-8.36A10.71 10.71 0 0 0 24 29.94c-.29.68-1.21 1.9-4 1.9h-.78A4.09 4.09 0 0 1 15.86 27a4.2 4.2 0 0 1 .74-1.64c1.39-2.2 8.23-8.95 8.42-9 .23.1 7 6.85 8.42 9a4 4 0 0 1-.77 5.64z"/></symbol><symbol id="icon-wp" viewBox="0 0 48.63 49.7"><title>icon-wp</title><path data-name="W P ON" d="M48.63 31.12L39.69 0l-9.83 9.93a20.77 20.77 0 0 0-11.09 0L8.93 0 0 31.12l3.44 1.13-.62 3.63a43.12 43.12 0 0 0 12.29 4.68c.73 2.83 1.92 6.67 3.25 7.76 1.07.85 3.52 1.3 5.81 1.37h.28c2.29-.07 4.74-.52 5.8-1.37 1.34-1.1 2.55-5 3.27-7.86a50.68 50.68 0 0 0 12.27-4.58l-.62-3.62zM30 31.59c-3.47.24-4.44-1.2-4.72-1.91a9.44 9.44 0 0 0 2.9 5.63h-8.12s2.29-1.7 3.38-6-.24 2.63-4.82 2.31a4.06 4.06 0 0 1-2.47-6.4c1.35-2.19 8-8.9 8.18-9 .23.1 6.85 6.81 8.19 9a4 4 0 0 1-.84 5.67 4 4 0 0 1-1.68.7z"/></symbol></svg>